<mxfile host="app.diagrams.net" modified="2023-10-25T13:19:37.941Z" agent="Mozilla/5.0 (Windows NT 10.0; Win64; x64) AppleWebKit/537.36 (KHTML, like Gecko) Chrome/118.0.0.0 Safari/537.36" etag="49f9Y7F7WYGxRLUPuOC7" version="22.0.7" type="google">
  <diagram name="Sida-1" id="J4ZF8JCqOCtpIPB2G_dQ">
    <mxGraphModel grid="1" page="1" gridSize="10" guides="1" tooltips="1" connect="1" arrows="1" fold="1" pageScale="1" pageWidth="827" pageHeight="1169" math="0" shadow="0">
      <root>
        <mxCell id="0" />
        <mxCell id="1" parent="0" />
        <mxCell id="OlIGe1CRsAUVruwGYQQv-7" value="" style="rounded=0;whiteSpace=wrap;html=1;" vertex="1" parent="1">
          <mxGeometry width="2320" height="1800" as="geometry" />
        </mxCell>
        <mxCell id="OlIGe1CRsAUVruwGYQQv-20" value="" style="rounded=0;whiteSpace=wrap;html=1;fillColor=#dae8fc;strokeColor=none;" vertex="1" parent="1">
          <mxGeometry width="2320" height="1800" as="geometry" />
        </mxCell>
        <mxCell id="OlIGe1CRsAUVruwGYQQv-33" value="" style="rounded=0;whiteSpace=wrap;html=1;fontSize=24;labelBackgroundColor=none;fontStyle=1;fillColor=#fff2cc;strokeColor=#d6b656;" vertex="1" parent="1">
          <mxGeometry x="2320" y="1300" width="50" height="300" as="geometry" />
        </mxCell>
        <mxCell id="OlIGe1CRsAUVruwGYQQv-39" value="" style="rounded=0;whiteSpace=wrap;html=1;fillColor=#d5e8d4;strokeColor=#82b366;" vertex="1" parent="1">
          <mxGeometry x="10" y="1512" width="110" height="288" as="geometry" />
        </mxCell>
        <mxCell id="OlIGe1CRsAUVruwGYQQv-50" value="" style="rounded=0;whiteSpace=wrap;html=1;fillColor=#d5e8d4;strokeColor=#82b366;" vertex="1" parent="1">
          <mxGeometry x="10" y="1224" width="110" height="288" as="geometry" />
        </mxCell>
        <mxCell id="OlIGe1CRsAUVruwGYQQv-51" value="" style="rounded=0;whiteSpace=wrap;html=1;fillColor=#d5e8d4;strokeColor=#82b366;" vertex="1" parent="1">
          <mxGeometry x="10" y="936" width="110" height="288" as="geometry" />
        </mxCell>
        <mxCell id="OlIGe1CRsAUVruwGYQQv-52" value="" style="rounded=0;whiteSpace=wrap;html=1;fillColor=#d5e8d4;strokeColor=#82b366;" vertex="1" parent="1">
          <mxGeometry x="10" y="650" width="110" height="288" as="geometry" />
        </mxCell>
        <mxCell id="OlIGe1CRsAUVruwGYQQv-53" value="" style="rounded=0;whiteSpace=wrap;html=1;fillColor=#d5e8d4;strokeColor=#82b366;" vertex="1" parent="1">
          <mxGeometry x="10" y="362" width="110" height="288" as="geometry" />
        </mxCell>
        <mxCell id="OlIGe1CRsAUVruwGYQQv-55" value="" style="rounded=0;whiteSpace=wrap;html=1;fillColor=#d5e8d4;strokeColor=#82b366;" vertex="1" parent="1">
          <mxGeometry x="490" y="362" width="240" height="288" as="geometry" />
        </mxCell>
        <mxCell id="OlIGe1CRsAUVruwGYQQv-56" value="" style="rounded=0;whiteSpace=wrap;html=1;fillColor=#d5e8d4;strokeColor=#82b366;" vertex="1" parent="1">
          <mxGeometry x="490" y="648" width="240" height="288" as="geometry" />
        </mxCell>
        <mxCell id="OlIGe1CRsAUVruwGYQQv-57" value="" style="rounded=0;whiteSpace=wrap;html=1;fillColor=#d5e8d4;strokeColor=#82b366;" vertex="1" parent="1">
          <mxGeometry x="1100" y="362" width="240" height="288" as="geometry" />
        </mxCell>
        <mxCell id="OlIGe1CRsAUVruwGYQQv-58" value="" style="rounded=0;whiteSpace=wrap;html=1;fillColor=#d5e8d4;strokeColor=#82b366;" vertex="1" parent="1">
          <mxGeometry x="1100" y="650" width="240" height="288" as="geometry" />
        </mxCell>
        <mxCell id="OlIGe1CRsAUVruwGYQQv-59" value="" style="rounded=0;whiteSpace=wrap;html=1;fillColor=#d5e8d4;strokeColor=#82b366;" vertex="1" parent="1">
          <mxGeometry x="1710" y="362" width="240" height="288" as="geometry" />
        </mxCell>
        <mxCell id="OlIGe1CRsAUVruwGYQQv-62" value="" style="rounded=0;whiteSpace=wrap;html=1;fillColor=#d5e8d4;strokeColor=#82b366;" vertex="1" parent="1">
          <mxGeometry x="1710" y="650" width="240" height="288" as="geometry" />
        </mxCell>
        <mxCell id="OlIGe1CRsAUVruwGYQQv-63" value="" style="rounded=0;whiteSpace=wrap;html=1;fillColor=#d5e8d4;strokeColor=#82b366;" vertex="1" parent="1">
          <mxGeometry x="1710" y="940" width="240" height="288" as="geometry" />
        </mxCell>
        <mxCell id="OlIGe1CRsAUVruwGYQQv-64" value="&lt;font style=&quot;&quot;&gt;&lt;font style=&quot;font-size: 32px;&quot;&gt;&lt;b&gt;Free-space&lt;/b&gt;&lt;/font&gt;&lt;br&gt;&lt;/font&gt;" style="rounded=0;whiteSpace=wrap;html=1;fillColor=#dae8fc;strokeColor=#6c8ebf;" vertex="1" parent="1">
          <mxGeometry y="1860" width="250" height="60" as="geometry" />
        </mxCell>
        <mxCell id="OlIGe1CRsAUVruwGYQQv-65" value="Shelves" style="rounded=0;whiteSpace=wrap;html=1;fillColor=#d5e8d4;strokeColor=#82b366;fontSize=32;fontStyle=1" vertex="1" parent="1">
          <mxGeometry y="1930" width="250" height="60" as="geometry" />
        </mxCell>
        <mxCell id="OlIGe1CRsAUVruwGYQQv-66" value="Loose Objects" style="rounded=0;whiteSpace=wrap;html=1;fillColor=#f8cecc;strokeColor=#b85450;fontSize=32;fontStyle=1" vertex="1" parent="1">
          <mxGeometry y="2010" width="250" height="60" as="geometry" />
        </mxCell>
        <mxCell id="OlIGe1CRsAUVruwGYQQv-67" value="Entrance/Exit" style="rounded=0;whiteSpace=wrap;html=1;fillColor=#fff2cc;strokeColor=#d6b656;fontSize=32;fontStyle=1" vertex="1" parent="1">
          <mxGeometry y="2090" width="250" height="60" as="geometry" />
        </mxCell>
        <mxCell id="OlIGe1CRsAUVruwGYQQv-69" value="" style="rounded=0;whiteSpace=wrap;html=1;fillColor=#f8cecc;strokeColor=#b85450;" vertex="1" parent="1">
          <mxGeometry x="490" y="950" width="80" height="120" as="geometry" />
        </mxCell>
        <mxCell id="OlIGe1CRsAUVruwGYQQv-70" value="" style="rounded=0;whiteSpace=wrap;html=1;fillColor=#f8cecc;strokeColor=#b85450;" vertex="1" parent="1">
          <mxGeometry x="2140" y="1670" width="80" height="120" as="geometry" />
        </mxCell>
        <mxCell id="OlIGe1CRsAUVruwGYQQv-71" value="" style="rounded=0;whiteSpace=wrap;html=1;fillColor=#f8cecc;strokeColor=#b85450;" vertex="1" parent="1">
          <mxGeometry x="2050" y="1670" width="80" height="120" as="geometry" />
        </mxCell>
        <mxCell id="OlIGe1CRsAUVruwGYQQv-72" value="" style="rounded=0;whiteSpace=wrap;html=1;fillColor=#f8cecc;strokeColor=#b85450;" vertex="1" parent="1">
          <mxGeometry x="1960" y="1670" width="80" height="120" as="geometry" />
        </mxCell>
        <mxCell id="OlIGe1CRsAUVruwGYQQv-73" value="" style="rounded=0;whiteSpace=wrap;html=1;fillColor=#f8cecc;strokeColor=#b85450;" vertex="1" parent="1">
          <mxGeometry x="1870" y="1670" width="80" height="120" as="geometry" />
        </mxCell>
        <mxCell id="OlIGe1CRsAUVruwGYQQv-74" value="" style="rounded=0;whiteSpace=wrap;html=1;fillColor=#f8cecc;strokeColor=#b85450;" vertex="1" parent="1">
          <mxGeometry x="1180" y="950" width="80" height="120" as="geometry" />
        </mxCell>
        <mxCell id="OlIGe1CRsAUVruwGYQQv-75" value="" style="rounded=0;whiteSpace=wrap;html=1;fillColor=#f8cecc;strokeColor=#b85450;" vertex="1" parent="1">
          <mxGeometry x="1100" y="950" width="80" height="120" as="geometry" />
        </mxCell>
        <mxCell id="OlIGe1CRsAUVruwGYQQv-76" value="" style="rounded=0;whiteSpace=wrap;html=1;fillColor=#f8cecc;strokeColor=#b85450;" vertex="1" parent="1">
          <mxGeometry x="1260" y="950" width="80" height="120" as="geometry" />
        </mxCell>
        <mxCell id="OlIGe1CRsAUVruwGYQQv-77" value="" style="rounded=0;whiteSpace=wrap;html=1;fillColor=#f8cecc;strokeColor=#b85450;" vertex="1" parent="1">
          <mxGeometry x="570" y="950" width="80" height="120" as="geometry" />
        </mxCell>
        <mxCell id="OlIGe1CRsAUVruwGYQQv-78" value="" style="rounded=0;whiteSpace=wrap;html=1;fillColor=#f8cecc;strokeColor=#b85450;" vertex="1" parent="1">
          <mxGeometry x="650" y="950" width="80" height="120" as="geometry" />
        </mxCell>
        <mxCell id="OlIGe1CRsAUVruwGYQQv-79" value="" style="rounded=0;whiteSpace=wrap;html=1;fillColor=#f8cecc;strokeColor=#b85450;" vertex="1" parent="1">
          <mxGeometry x="2230" y="1670" width="80" height="120" as="geometry" />
        </mxCell>
        <mxCell id="wWJ9FftnWS55JwV0CwrB-2" value="3,7" style="endArrow=classic;startArrow=classic;html=1;rounded=0;entryX=0;entryY=0;entryDx=0;entryDy=0;fontSize=50;fillColor=#dae8fc;strokeColor=#6c8ebf;labelBackgroundColor=none;" edge="1" parent="1" target="OlIGe1CRsAUVruwGYQQv-55">
          <mxGeometry width="50" height="50" relative="1" as="geometry">
            <mxPoint x="120" y="360" as="sourcePoint" />
            <mxPoint x="260.3200000000006" y="199.99999999999966" as="targetPoint" />
            <mxPoint as="offset" />
          </mxGeometry>
        </mxCell>
        <mxCell id="wWJ9FftnWS55JwV0CwrB-8" value="3,7" style="endArrow=classic;startArrow=classic;html=1;rounded=0;entryX=0;entryY=0;entryDx=0;entryDy=0;fontSize=50;fillColor=#dae8fc;strokeColor=#6c8ebf;labelBackgroundColor=none;" edge="1" parent="1">
          <mxGeometry x="0.009" width="50" height="50" relative="1" as="geometry">
            <mxPoint x="730" y="359.5" as="sourcePoint" />
            <mxPoint x="1100" y="361.5" as="targetPoint" />
            <mxPoint as="offset" />
          </mxGeometry>
        </mxCell>
        <mxCell id="wWJ9FftnWS55JwV0CwrB-9" value="3,7" style="endArrow=classic;startArrow=classic;html=1;rounded=0;entryX=0;entryY=0;entryDx=0;entryDy=0;fontSize=50;fillColor=#dae8fc;strokeColor=#6c8ebf;labelBackgroundColor=none;" edge="1" parent="1">
          <mxGeometry width="50" height="50" relative="1" as="geometry">
            <mxPoint x="1340" y="362" as="sourcePoint" />
            <mxPoint x="1710" y="364" as="targetPoint" />
            <mxPoint as="offset" />
          </mxGeometry>
        </mxCell>
        <mxCell id="wWJ9FftnWS55JwV0CwrB-10" value="3,7" style="endArrow=classic;startArrow=classic;html=1;rounded=0;entryX=0;entryY=0;entryDx=0;entryDy=0;fontSize=50;fillColor=#dae8fc;strokeColor=#6c8ebf;labelBackgroundColor=none;" edge="1" parent="1">
          <mxGeometry width="50" height="50" relative="1" as="geometry">
            <mxPoint x="1950" y="359.5" as="sourcePoint" />
            <mxPoint x="2320" y="361.5" as="targetPoint" />
            <mxPoint as="offset" />
          </mxGeometry>
        </mxCell>
        <mxCell id="wWJ9FftnWS55JwV0CwrB-12" value="" style="endArrow=none;html=1;rounded=0;exitX=-0.001;exitY=0.193;exitDx=0;exitDy=0;exitPerimeter=0;" edge="1" parent="1">
          <mxGeometry width="50" height="50" relative="1" as="geometry">
            <mxPoint x="-1.6342482922482304e-13" y="361.2000000000001" as="sourcePoint" />
            <mxPoint x="-70" y="361.2" as="targetPoint" />
          </mxGeometry>
        </mxCell>
        <mxCell id="wWJ9FftnWS55JwV0CwrB-13" value="" style="endArrow=none;html=1;rounded=0;exitX=-0.001;exitY=0.193;exitDx=0;exitDy=0;exitPerimeter=0;" edge="1" parent="1">
          <mxGeometry width="50" height="50" relative="1" as="geometry">
            <mxPoint x="-1.6342482922482304e-13" y="1.1368683772161603e-13" as="sourcePoint" />
            <mxPoint x="-190" as="targetPoint" />
          </mxGeometry>
        </mxCell>
        <mxCell id="wWJ9FftnWS55JwV0CwrB-14" value="2.88" style="endArrow=classic;startArrow=classic;html=1;rounded=0;fontSize=50;fillColor=#dae8fc;strokeColor=#6c8ebf;labelBackgroundColor=none;" edge="1" parent="1">
          <mxGeometry width="50" height="50" relative="1" as="geometry">
            <mxPoint x="-60" y="650" as="sourcePoint" />
            <mxPoint x="-60" y="362" as="targetPoint" />
            <mxPoint as="offset" />
          </mxGeometry>
        </mxCell>
        <mxCell id="wWJ9FftnWS55JwV0CwrB-15" value="" style="endArrow=none;html=1;rounded=0;exitX=-0.001;exitY=0.193;exitDx=0;exitDy=0;exitPerimeter=0;" edge="1" parent="1">
          <mxGeometry width="50" height="50" relative="1" as="geometry">
            <mxPoint x="-1.6342482922482304e-13" y="650" as="sourcePoint" />
            <mxPoint x="-70" y="650" as="targetPoint" />
          </mxGeometry>
        </mxCell>
        <mxCell id="wWJ9FftnWS55JwV0CwrB-16" value="" style="endArrow=none;html=1;rounded=0;exitX=-0.001;exitY=0.193;exitDx=0;exitDy=0;exitPerimeter=0;" edge="1" parent="1">
          <mxGeometry width="50" height="50" relative="1" as="geometry">
            <mxPoint x="-1.6342482922482304e-13" y="362.0000000000001" as="sourcePoint" />
            <mxPoint x="-70" y="362" as="targetPoint" />
          </mxGeometry>
        </mxCell>
        <mxCell id="wWJ9FftnWS55JwV0CwrB-17" value="2.88" style="endArrow=classic;startArrow=classic;html=1;rounded=0;fontSize=50;fillColor=#dae8fc;strokeColor=#6c8ebf;labelBackgroundColor=none;" edge="1" parent="1">
          <mxGeometry width="50" height="50" relative="1" as="geometry">
            <mxPoint x="-60" y="938.5699999999999" as="sourcePoint" />
            <mxPoint x="-60" y="650.5699999999999" as="targetPoint" />
            <mxPoint as="offset" />
          </mxGeometry>
        </mxCell>
        <mxCell id="wWJ9FftnWS55JwV0CwrB-18" value="" style="endArrow=none;html=1;rounded=0;exitX=-0.001;exitY=0.193;exitDx=0;exitDy=0;exitPerimeter=0;" edge="1" parent="1">
          <mxGeometry width="50" height="50" relative="1" as="geometry">
            <mxPoint x="-1.6342482922482304e-13" y="938.5699999999999" as="sourcePoint" />
            <mxPoint x="-70" y="938.5699999999999" as="targetPoint" />
          </mxGeometry>
        </mxCell>
        <mxCell id="wWJ9FftnWS55JwV0CwrB-19" value="2.88" style="endArrow=classic;startArrow=classic;html=1;rounded=0;fontSize=50;fillColor=#dae8fc;strokeColor=#6c8ebf;labelBackgroundColor=none;" edge="1" parent="1">
          <mxGeometry width="50" height="50" relative="1" as="geometry">
            <mxPoint x="-60" y="1224" as="sourcePoint" />
            <mxPoint x="-60" y="936" as="targetPoint" />
            <mxPoint as="offset" />
          </mxGeometry>
        </mxCell>
        <mxCell id="wWJ9FftnWS55JwV0CwrB-20" value="" style="endArrow=none;html=1;rounded=0;exitX=-0.001;exitY=0.193;exitDx=0;exitDy=0;exitPerimeter=0;" edge="1" parent="1">
          <mxGeometry width="50" height="50" relative="1" as="geometry">
            <mxPoint x="-1.6342482922482304e-13" y="1224" as="sourcePoint" />
            <mxPoint x="-70" y="1224" as="targetPoint" />
          </mxGeometry>
        </mxCell>
        <mxCell id="wWJ9FftnWS55JwV0CwrB-21" value="2.88" style="endArrow=classic;startArrow=classic;html=1;rounded=0;fontSize=50;fillColor=#dae8fc;strokeColor=#6c8ebf;labelBackgroundColor=none;" edge="1" parent="1">
          <mxGeometry width="50" height="50" relative="1" as="geometry">
            <mxPoint x="-60" y="1510.5700000000002" as="sourcePoint" />
            <mxPoint x="-60" y="1222.5700000000002" as="targetPoint" />
            <mxPoint as="offset" />
          </mxGeometry>
        </mxCell>
        <mxCell id="wWJ9FftnWS55JwV0CwrB-22" value="" style="endArrow=none;html=1;rounded=0;exitX=-0.001;exitY=0.193;exitDx=0;exitDy=0;exitPerimeter=0;" edge="1" parent="1">
          <mxGeometry width="50" height="50" relative="1" as="geometry">
            <mxPoint x="-1.6342482922482304e-13" y="1510.5700000000002" as="sourcePoint" />
            <mxPoint x="-70" y="1510.5700000000002" as="targetPoint" />
          </mxGeometry>
        </mxCell>
        <mxCell id="wWJ9FftnWS55JwV0CwrB-23" value="2.88" style="endArrow=classic;startArrow=classic;html=1;rounded=0;fontSize=50;fillColor=#dae8fc;strokeColor=#6c8ebf;labelBackgroundColor=none;" edge="1" parent="1">
          <mxGeometry width="50" height="50" relative="1" as="geometry">
            <mxPoint x="-60" y="1798.57" as="sourcePoint" />
            <mxPoint x="-60" y="1510.57" as="targetPoint" />
            <mxPoint as="offset" />
          </mxGeometry>
        </mxCell>
        <mxCell id="wWJ9FftnWS55JwV0CwrB-24" value="" style="endArrow=none;html=1;rounded=0;exitX=-0.001;exitY=0.193;exitDx=0;exitDy=0;exitPerimeter=0;" edge="1" parent="1">
          <mxGeometry width="50" height="50" relative="1" as="geometry">
            <mxPoint x="-1.6342482922482304e-13" y="1798.57" as="sourcePoint" />
            <mxPoint x="-190" y="1799" as="targetPoint" />
          </mxGeometry>
        </mxCell>
        <mxCell id="wWJ9FftnWS55JwV0CwrB-32" value="" style="endArrow=none;html=1;rounded=0;exitX=0.211;exitY=0.156;exitDx=0;exitDy=0;exitPerimeter=0;" edge="1" parent="1">
          <mxGeometry width="50" height="50" relative="1" as="geometry">
            <mxPoint x="490" y="282" as="sourcePoint" />
            <mxPoint x="490" y="362" as="targetPoint" />
          </mxGeometry>
        </mxCell>
        <mxCell id="wWJ9FftnWS55JwV0CwrB-33" value="" style="endArrow=none;html=1;rounded=0;exitX=0.211;exitY=0.156;exitDx=0;exitDy=0;exitPerimeter=0;" edge="1" parent="1">
          <mxGeometry width="50" height="50" relative="1" as="geometry">
            <mxPoint x="728.5699999999999" y="282" as="sourcePoint" />
            <mxPoint x="728.5699999999999" y="362" as="targetPoint" />
          </mxGeometry>
        </mxCell>
        <mxCell id="wWJ9FftnWS55JwV0CwrB-34" value="2,4" style="endArrow=classic;startArrow=classic;html=1;rounded=0;fontSize=50;fillColor=#dae8fc;strokeColor=#6c8ebf;labelBackgroundColor=none;" edge="1" parent="1">
          <mxGeometry width="50" height="50" relative="1" as="geometry">
            <mxPoint x="490" y="290" as="sourcePoint" />
            <mxPoint x="730" y="290" as="targetPoint" />
            <mxPoint as="offset" />
          </mxGeometry>
        </mxCell>
        <mxCell id="wWJ9FftnWS55JwV0CwrB-35" value="" style="endArrow=none;html=1;rounded=0;exitX=0.211;exitY=0.156;exitDx=0;exitDy=0;exitPerimeter=0;" edge="1" parent="1">
          <mxGeometry width="50" height="50" relative="1" as="geometry">
            <mxPoint x="1100" y="282" as="sourcePoint" />
            <mxPoint x="1100" y="362" as="targetPoint" />
          </mxGeometry>
        </mxCell>
        <mxCell id="wWJ9FftnWS55JwV0CwrB-36" value="" style="endArrow=none;html=1;rounded=0;exitX=0.211;exitY=0.156;exitDx=0;exitDy=0;exitPerimeter=0;" edge="1" parent="1">
          <mxGeometry width="50" height="50" relative="1" as="geometry">
            <mxPoint x="1338.57" y="282" as="sourcePoint" />
            <mxPoint x="1338.57" y="362" as="targetPoint" />
          </mxGeometry>
        </mxCell>
        <mxCell id="wWJ9FftnWS55JwV0CwrB-37" value="2,4" style="endArrow=classic;startArrow=classic;html=1;rounded=0;fontSize=50;fillColor=#dae8fc;strokeColor=#6c8ebf;labelBackgroundColor=none;" edge="1" parent="1">
          <mxGeometry width="50" height="50" relative="1" as="geometry">
            <mxPoint x="1100" y="290" as="sourcePoint" />
            <mxPoint x="1340" y="290" as="targetPoint" />
            <mxPoint as="offset" />
          </mxGeometry>
        </mxCell>
        <mxCell id="wWJ9FftnWS55JwV0CwrB-38" value="" style="endArrow=none;html=1;rounded=0;exitX=0.211;exitY=0.156;exitDx=0;exitDy=0;exitPerimeter=0;" edge="1" parent="1">
          <mxGeometry width="50" height="50" relative="1" as="geometry">
            <mxPoint x="1710" y="282" as="sourcePoint" />
            <mxPoint x="1710" y="362" as="targetPoint" />
          </mxGeometry>
        </mxCell>
        <mxCell id="wWJ9FftnWS55JwV0CwrB-39" value="" style="endArrow=none;html=1;rounded=0;exitX=0.211;exitY=0.156;exitDx=0;exitDy=0;exitPerimeter=0;" edge="1" parent="1">
          <mxGeometry width="50" height="50" relative="1" as="geometry">
            <mxPoint x="1948.57" y="282" as="sourcePoint" />
            <mxPoint x="1948.57" y="362" as="targetPoint" />
          </mxGeometry>
        </mxCell>
        <mxCell id="wWJ9FftnWS55JwV0CwrB-40" value="2,4" style="endArrow=classic;startArrow=classic;html=1;rounded=0;fontSize=50;fillColor=#dae8fc;strokeColor=#6c8ebf;labelBackgroundColor=none;" edge="1" parent="1">
          <mxGeometry width="50" height="50" relative="1" as="geometry">
            <mxPoint x="1710" y="290" as="sourcePoint" />
            <mxPoint x="1950" y="290" as="targetPoint" />
            <mxPoint as="offset" />
          </mxGeometry>
        </mxCell>
        <mxCell id="wWJ9FftnWS55JwV0CwrB-41" value="" style="endArrow=none;html=1;rounded=0;exitX=0.211;exitY=0.156;exitDx=0;exitDy=0;exitPerimeter=0;" edge="1" parent="1">
          <mxGeometry width="50" height="50" relative="1" as="geometry">
            <mxPoint x="10" y="282" as="sourcePoint" />
            <mxPoint x="10" y="362" as="targetPoint" />
          </mxGeometry>
        </mxCell>
        <mxCell id="wWJ9FftnWS55JwV0CwrB-42" value="" style="endArrow=none;html=1;rounded=0;exitX=0.051;exitY=0.117;exitDx=0;exitDy=0;exitPerimeter=0;" edge="1" parent="1" source="OlIGe1CRsAUVruwGYQQv-20">
          <mxGeometry width="50" height="50" relative="1" as="geometry">
            <mxPoint x="118.81999999999994" y="282" as="sourcePoint" />
            <mxPoint x="118.81999999999994" y="362" as="targetPoint" />
          </mxGeometry>
        </mxCell>
        <mxCell id="wWJ9FftnWS55JwV0CwrB-43" value="1,1" style="endArrow=classic;startArrow=classic;html=1;rounded=0;fontSize=50;fillColor=#dae8fc;strokeColor=#6c8ebf;labelBackgroundColor=none;" edge="1" parent="1">
          <mxGeometry width="50" height="50" relative="1" as="geometry">
            <mxPoint x="10" y="290" as="sourcePoint" />
            <mxPoint x="120" y="290" as="targetPoint" />
            <mxPoint as="offset" />
          </mxGeometry>
        </mxCell>
        <mxCell id="wWJ9FftnWS55JwV0CwrB-47" value="" style="endArrow=none;html=1;rounded=0;exitX=-0.001;exitY=0.193;exitDx=0;exitDy=0;exitPerimeter=0;" edge="1" parent="1">
          <mxGeometry width="50" height="50" relative="1" as="geometry">
            <mxPoint x="1869.9999999999998" y="1670" as="sourcePoint" />
            <mxPoint x="1800" y="1670" as="targetPoint" />
          </mxGeometry>
        </mxCell>
        <mxCell id="wWJ9FftnWS55JwV0CwrB-48" value="1,2" style="endArrow=classic;startArrow=classic;html=1;rounded=0;fontSize=50;fillColor=#dae8fc;strokeColor=#6c8ebf;labelBackgroundColor=none;" edge="1" parent="1">
          <mxGeometry width="50" height="50" relative="1" as="geometry">
            <mxPoint x="1810" y="1788.8899999999999" as="sourcePoint" />
            <mxPoint x="1810" y="1670" as="targetPoint" />
            <mxPoint as="offset" />
          </mxGeometry>
        </mxCell>
        <mxCell id="wWJ9FftnWS55JwV0CwrB-49" value="" style="endArrow=none;html=1;rounded=0;exitX=-0.001;exitY=0.193;exitDx=0;exitDy=0;exitPerimeter=0;" edge="1" parent="1">
          <mxGeometry width="50" height="50" relative="1" as="geometry">
            <mxPoint x="1869.9999999999998" y="1788.8899999999999" as="sourcePoint" />
            <mxPoint x="1800" y="1788.8899999999999" as="targetPoint" />
          </mxGeometry>
        </mxCell>
        <mxCell id="wWJ9FftnWS55JwV0CwrB-56" value="" style="endArrow=none;html=1;rounded=0;exitX=0.211;exitY=0.156;exitDx=0;exitDy=0;exitPerimeter=0;" edge="1" parent="1">
          <mxGeometry width="50" height="50" relative="1" as="geometry">
            <mxPoint x="1870" y="1590" as="sourcePoint" />
            <mxPoint x="1870" y="1670" as="targetPoint" />
          </mxGeometry>
        </mxCell>
        <mxCell id="wWJ9FftnWS55JwV0CwrB-57" value="" style="endArrow=none;html=1;rounded=0;exitX=0.211;exitY=0.156;exitDx=0;exitDy=0;exitPerimeter=0;" edge="1" parent="1">
          <mxGeometry width="50" height="50" relative="1" as="geometry">
            <mxPoint x="1949.0499999999997" y="1590" as="sourcePoint" />
            <mxPoint x="1949.48" y="1670" as="targetPoint" />
          </mxGeometry>
        </mxCell>
        <mxCell id="wWJ9FftnWS55JwV0CwrB-58" value="0,8" style="endArrow=classic;startArrow=classic;html=1;rounded=0;fontSize=50;fillColor=#dae8fc;strokeColor=#6c8ebf;labelBackgroundColor=none;" edge="1" parent="1">
          <mxGeometry width="50" height="50" relative="1" as="geometry">
            <mxPoint x="1870" y="1598" as="sourcePoint" />
            <mxPoint x="1950" y="1598" as="targetPoint" />
            <mxPoint as="offset" />
          </mxGeometry>
        </mxCell>
        <mxCell id="wWJ9FftnWS55JwV0CwrB-62" value="" style="endArrow=none;html=1;rounded=0;exitX=-0.001;exitY=0.193;exitDx=0;exitDy=0;exitPerimeter=0;entryX=0.698;entryY=0.889;entryDx=0;entryDy=0;entryPerimeter=0;" edge="1" parent="1" target="OlIGe1CRsAUVruwGYQQv-20">
          <mxGeometry width="50" height="50" relative="1" as="geometry">
            <mxPoint x="2320" y="1600" as="sourcePoint" />
            <mxPoint x="2250" y="1600" as="targetPoint" />
          </mxGeometry>
        </mxCell>
        <mxCell id="wWJ9FftnWS55JwV0CwrB-65" value="2" style="endArrow=classic;startArrow=classic;html=1;rounded=0;fontSize=50;fillColor=#dae8fc;strokeColor=#6c8ebf;labelBackgroundColor=none;exitX=0.703;exitY=1.001;exitDx=0;exitDy=0;exitPerimeter=0;" edge="1" parent="1" source="OlIGe1CRsAUVruwGYQQv-20">
          <mxGeometry width="50" height="50" relative="1" as="geometry">
            <mxPoint x="1630" y="1718.8899999999999" as="sourcePoint" />
            <mxPoint x="1630" y="1600" as="targetPoint" />
            <mxPoint as="offset" />
          </mxGeometry>
        </mxCell>
        <mxCell id="wWJ9FftnWS55JwV0CwrB-66" value="" style="endArrow=none;html=1;rounded=0;exitX=-0.001;exitY=0.193;exitDx=0;exitDy=0;exitPerimeter=0;entryX=0.698;entryY=0.889;entryDx=0;entryDy=0;entryPerimeter=0;" edge="1" parent="1">
          <mxGeometry width="50" height="50" relative="1" as="geometry">
            <mxPoint x="2320" y="1300" as="sourcePoint" />
            <mxPoint x="1619" y="1300" as="targetPoint" />
          </mxGeometry>
        </mxCell>
        <mxCell id="wWJ9FftnWS55JwV0CwrB-67" value="3" style="endArrow=classic;startArrow=classic;html=1;rounded=0;fontSize=50;fillColor=#dae8fc;strokeColor=#6c8ebf;labelBackgroundColor=none;exitX=0.703;exitY=1.001;exitDx=0;exitDy=0;exitPerimeter=0;" edge="1" parent="1">
          <mxGeometry width="50" height="50" relative="1" as="geometry">
            <mxPoint x="1631" y="1600" as="sourcePoint" />
            <mxPoint x="1630" y="1300" as="targetPoint" />
            <mxPoint as="offset" />
          </mxGeometry>
        </mxCell>
        <mxCell id="wWJ9FftnWS55JwV0CwrB-75" value="" style="endArrow=none;html=1;rounded=0;exitX=-0.001;exitY=0.193;exitDx=0;exitDy=0;exitPerimeter=0;" edge="1" parent="1">
          <mxGeometry width="50" height="50" relative="1" as="geometry">
            <mxPoint x="1099.9999999999998" y="950" as="sourcePoint" />
            <mxPoint x="1030" y="950" as="targetPoint" />
          </mxGeometry>
        </mxCell>
        <mxCell id="wWJ9FftnWS55JwV0CwrB-76" value="1,2" style="endArrow=classic;startArrow=classic;html=1;rounded=0;fontSize=50;fillColor=#dae8fc;strokeColor=#6c8ebf;labelBackgroundColor=none;" edge="1" parent="1">
          <mxGeometry width="50" height="50" relative="1" as="geometry">
            <mxPoint x="1040" y="1068.8899999999999" as="sourcePoint" />
            <mxPoint x="1040" y="950" as="targetPoint" />
            <mxPoint as="offset" />
          </mxGeometry>
        </mxCell>
        <mxCell id="wWJ9FftnWS55JwV0CwrB-77" value="" style="endArrow=none;html=1;rounded=0;exitX=-0.001;exitY=0.193;exitDx=0;exitDy=0;exitPerimeter=0;" edge="1" parent="1">
          <mxGeometry width="50" height="50" relative="1" as="geometry">
            <mxPoint x="1099.9999999999998" y="1068.8899999999999" as="sourcePoint" />
            <mxPoint x="1030" y="1068.8899999999999" as="targetPoint" />
          </mxGeometry>
        </mxCell>
        <mxCell id="wWJ9FftnWS55JwV0CwrB-78" value="" style="endArrow=none;html=1;rounded=0;exitX=-0.001;exitY=0.193;exitDx=0;exitDy=0;exitPerimeter=0;" edge="1" parent="1">
          <mxGeometry width="50" height="50" relative="1" as="geometry">
            <mxPoint x="489.9999999999998" y="950" as="sourcePoint" />
            <mxPoint x="420" y="950" as="targetPoint" />
          </mxGeometry>
        </mxCell>
        <mxCell id="wWJ9FftnWS55JwV0CwrB-79" value="1,2" style="endArrow=classic;startArrow=classic;html=1;rounded=0;fontSize=50;fillColor=#dae8fc;strokeColor=#6c8ebf;labelBackgroundColor=none;" edge="1" parent="1">
          <mxGeometry width="50" height="50" relative="1" as="geometry">
            <mxPoint x="430" y="1068.8899999999999" as="sourcePoint" />
            <mxPoint x="430" y="950" as="targetPoint" />
            <mxPoint as="offset" />
          </mxGeometry>
        </mxCell>
        <mxCell id="wWJ9FftnWS55JwV0CwrB-80" value="" style="endArrow=none;html=1;rounded=0;exitX=-0.001;exitY=0.193;exitDx=0;exitDy=0;exitPerimeter=0;" edge="1" parent="1">
          <mxGeometry width="50" height="50" relative="1" as="geometry">
            <mxPoint x="489.9999999999998" y="1068.8899999999999" as="sourcePoint" />
            <mxPoint x="420" y="1068.8899999999999" as="targetPoint" />
          </mxGeometry>
        </mxCell>
        <mxCell id="wWJ9FftnWS55JwV0CwrB-83" value="0,8" style="endArrow=classic;startArrow=classic;html=1;rounded=0;fontSize=50;fillColor=#dae8fc;strokeColor=#6c8ebf;labelBackgroundColor=none;" edge="1" parent="1">
          <mxGeometry width="50" height="50" relative="1" as="geometry">
            <mxPoint x="1099.52" y="1010" as="sourcePoint" />
            <mxPoint x="1179.52" y="1010" as="targetPoint" />
            <mxPoint as="offset" />
          </mxGeometry>
        </mxCell>
        <mxCell id="wWJ9FftnWS55JwV0CwrB-86" value="0,8" style="endArrow=classic;startArrow=classic;html=1;rounded=0;fontSize=50;fillColor=#dae8fc;strokeColor=#6c8ebf;labelBackgroundColor=none;" edge="1" parent="1">
          <mxGeometry width="50" height="50" relative="1" as="geometry">
            <mxPoint x="489.52" y="998" as="sourcePoint" />
            <mxPoint x="569.52" y="998" as="targetPoint" />
            <mxPoint as="offset" />
          </mxGeometry>
        </mxCell>
        <mxCell id="wWJ9FftnWS55JwV0CwrB-91" value="1,2" style="endArrow=classic;startArrow=classic;html=1;rounded=0;fontSize=50;fillColor=#dae8fc;strokeColor=#6c8ebf;labelBackgroundColor=none;exitX=0;exitY=0.122;exitDx=0;exitDy=0;exitPerimeter=0;" edge="1" parent="1" source="OlIGe1CRsAUVruwGYQQv-20">
          <mxGeometry width="50" height="50" relative="1" as="geometry">
            <mxPoint x="8" y="213" as="sourcePoint" />
            <mxPoint x="118" y="220" as="targetPoint" />
            <mxPoint as="offset" />
          </mxGeometry>
        </mxCell>
        <mxCell id="wWJ9FftnWS55JwV0CwrB-92" value="" style="endArrow=classic;html=1;rounded=0;entryX=0;entryY=0;entryDx=0;entryDy=0;fontSize=100;fontStyle=0;labelPosition=center;verticalLabelPosition=top;align=center;verticalAlign=bottom;" edge="1" parent="1" target="OlIGe1CRsAUVruwGYQQv-20">
          <mxGeometry width="50" height="50" relative="1" as="geometry">
            <mxPoint x="-140" y="-160" as="sourcePoint" />
            <mxPoint x="500" y="-90" as="targetPoint" />
          </mxGeometry>
        </mxCell>
        <mxCell id="wWJ9FftnWS55JwV0CwrB-99" value="Origin Point (0,0)" style="edgeLabel;html=1;align=center;verticalAlign=middle;resizable=0;points=[];fontSize=50;labelBackgroundColor=none;" connectable="0" vertex="1" parent="wWJ9FftnWS55JwV0CwrB-92">
          <mxGeometry x="-0.9075" y="2" relative="1" as="geometry">
            <mxPoint x="-18" y="-36" as="offset" />
          </mxGeometry>
        </mxCell>
        <mxCell id="wWJ9FftnWS55JwV0CwrB-117" value="" style="endArrow=none;html=1;rounded=0;exitX=0.211;exitY=0.156;exitDx=0;exitDy=0;exitPerimeter=0;" edge="1" parent="1">
          <mxGeometry width="50" height="50" relative="1" as="geometry">
            <mxPoint y="-80" as="sourcePoint" />
            <mxPoint as="targetPoint" />
          </mxGeometry>
        </mxCell>
        <mxCell id="wWJ9FftnWS55JwV0CwrB-118" value="" style="endArrow=none;html=1;rounded=0;exitX=0.211;exitY=0.156;exitDx=0;exitDy=0;exitPerimeter=0;" edge="1" parent="1">
          <mxGeometry width="50" height="50" relative="1" as="geometry">
            <mxPoint x="2318.46" y="-80" as="sourcePoint" />
            <mxPoint x="2318.46" as="targetPoint" />
          </mxGeometry>
        </mxCell>
        <mxCell id="wWJ9FftnWS55JwV0CwrB-119" value="23,2" style="endArrow=classic;startArrow=classic;html=1;rounded=0;fontSize=50;fillColor=#dae8fc;strokeColor=#6c8ebf;labelBackgroundColor=none;" edge="1" parent="1">
          <mxGeometry width="50" height="50" relative="1" as="geometry">
            <mxPoint y="-70" as="sourcePoint" />
            <mxPoint x="2320" y="-70" as="targetPoint" />
            <mxPoint as="offset" />
          </mxGeometry>
        </mxCell>
        <mxCell id="wWJ9FftnWS55JwV0CwrB-122" value="18" style="endArrow=classic;startArrow=classic;html=1;rounded=0;fontSize=50;fillColor=#dae8fc;strokeColor=#6c8ebf;labelBackgroundColor=none;" edge="1" parent="1">
          <mxGeometry width="50" height="50" relative="1" as="geometry">
            <mxPoint x="-180" y="1800" as="sourcePoint" />
            <mxPoint x="-180" y="10" as="targetPoint" />
            <mxPoint as="offset" />
          </mxGeometry>
        </mxCell>
      </root>
    </mxGraphModel>
  </diagram>
</mxfile>
